<?xml version="1.0" encoding="utf-8"?>
<!-- Generator: Adobe Illustrator 20.0.0, SVG Export Plug-In . SVG Version: 6.00 Build 0)  -->
<svg version="1.1" id="Layer_1" xmlns="http://www.w3.org/2000/svg" xmlns:xlink="http://www.w3.org/1999/xlink" x="0px" y="0px"
	 viewBox="0 0 74 32.1" style="enable-background:new 0 0 74 32.1;" xml:space="preserve">
<style type="text/css">
	.st0{fill:#939598;}
</style>
<path class="st0" d="M58.9,0c-0.4,0-0.9,0-1.3,0C49.7,0,42.2,3.4,37,9.1C31.7,3.4,24.3,0,16.4,0c-0.4,0-0.9,0-1.3,0h0
	C5.2,0.5,0,8.4,0,16.1s5.2,15.6,15.1,16c0.4,0,0.9,0,1.3,0c7.9,0,15.4-3.4,20.6-9.1c5.2,5.7,12.7,9.1,20.6,9.1c0.4,0,0.9,0,1.3,0
	c9.9-0.4,15.1-8.4,15.1-16S68.8,0.5,58.9,0z M16.4,23.8c-0.3,0-0.6,0-0.9,0c-5.3-0.2-7.2-4.3-7.2-7.7s1.9-7.5,7.2-7.7h0
	c0.3,0,0.6,0,0.9,0c6.2,0,12,2.9,15.7,7.8C28.3,20.9,22.5,23.8,16.4,23.8z M58.5,23.8c-0.3,0-0.6,0-0.9,0c-6.2,0-12-2.9-15.7-7.8
	c3.7-4.8,9.5-7.8,15.7-7.8c0.3,0,0.6,0,0.9,0h0c5.3,0.2,7.2,4.3,7.2,7.7S63.8,23.6,58.5,23.8z"/>
</svg>
