<?xml version="1.0" encoding="utf-8"?>
<!-- Generator: Adobe Illustrator 20.0.0, SVG Export Plug-In . SVG Version: 6.00 Build 0)  -->
<svg version="1.1" id="Layer_1" xmlns="http://www.w3.org/2000/svg" xmlns:xlink="http://www.w3.org/1999/xlink" x="0px" y="0px"
	 viewBox="0 0 69.3 66.9" style="enable-background:new 0 0 69.3 66.9;" xml:space="preserve">
<style type="text/css">
	.st0{fill:#FFFFFF;}
</style>
<path class="st0" d="M27.8,49.5c-0.6,1.4-1,2.6-1.6,3.8c-0.2,0.4-0.7,0.9-1.1,1c-3.4,1.4-6.7,0.3-8.8-2.8c-1.2-1.8-2.5-3.3-4.7-3.7
	c-0.8-0.2-1.6,0-2.4,0c0.1,0.6,0,0.8,0.1,0.8c2.6,2,4.3,4.7,5.9,7.5c1.3,2.3,3.8,3,6.5,3.1c1.4,0,2.7,0,4.3,0c0,1.9,0.1,3.9,0,6
	c-0.1,1.6-1.1,2.1-3.1,1.4c-5.5-2-10.3-5.1-14.1-9.5c-9.7-11-11.5-26.6-4.6-39.2c7.2-13,21.5-19.9,36.5-17.5
	C54.7,2.7,66.1,14,68.8,28.2c3,16.2-6.4,32.6-21.9,38.2c-2.8,1-3.5,0.5-3.5-2.4c0-2.4,0-4.7,0-7.1c0-2.6-0.3-5.1-2.2-7.4
	c1.1-0.2,2.1-0.3,3-0.5c8.9-1.9,13.1-7.5,12.4-17.7c-0.2-2.4-1.7-4.7-2.6-7.1c-0.3-0.7-0.4-1.5-0.4-2.2c-0.1-2,0-4.1-0.2-6.1
	c-0.1-1.6-1.2-2.2-2.6-1.6c-2.1,0.8-4.1,1.8-6.2,2.5c-0.9,0.3-1.9,0.6-2.7,0.5c-4.8-1-9.6-1-14.5,0c-0.9,0.2-1.9-0.1-2.7-0.4
	C22.4,16,20.2,15,18,14.2c-1.1-0.4-1.9,0.1-2,1.3c-0.1,2.2-0.1,4.4-0.3,6.6c0,0.7-0.1,1.5-0.4,2c-6.8,9.7-1.5,22.7,10.1,24.9
	C26.2,49.2,27,49.3,27.8,49.5z"/>
</svg>
