<?xml version="1.0" encoding="utf-8"?>
<!-- Generator: Adobe Illustrator 20.0.0, SVG Export Plug-In . SVG Version: 6.00 Build 0)  -->
<svg version="1.1" id="Layer_1" xmlns="http://www.w3.org/2000/svg" xmlns:xlink="http://www.w3.org/1999/xlink" x="0px" y="0px"
	 viewBox="0 0 34.1 34.1" style="enable-background:new 0 0 34.1 34.1;" xml:space="preserve">
<style type="text/css">
	.st0{fill:#ED1C24;}
</style>
<path class="st0" d="M33.4,4.2l-3.5-3.5c-1-1-2.6-1-3.6,0L17.1,10L7.8,0.7c-1-1-2.6-1-3.6,0L0.7,4.2c-1,1-1,2.6,0,3.6l9.2,9.2
	l-9.2,9.2c-1,1-1,2.6,0,3.6l3.5,3.5c1,1,2.6,1,3.6,0l9.2-9.2l9.2,9.2c1,1,2.6,1,3.6,0l3.5-3.5c1-1,1-2.6,0-3.6l-9.2-9.2l9.2-9.2
	C34.3,6.8,34.3,5.2,33.4,4.2z"/>
</svg>
