<?xml version="1.0" encoding="utf-8"?>
<!-- Generator: Adobe Illustrator 20.0.0, SVG Export Plug-In . SVG Version: 6.00 Build 0)  -->
<svg version="1.1" id="Layer_1" xmlns="http://www.w3.org/2000/svg" xmlns:xlink="http://www.w3.org/1999/xlink" x="0px" y="0px"
	 viewBox="0 0 50.2 50.2" style="enable-background:new 0 0 50.2 50.2;" xml:space="preserve">
<style type="text/css">
	.st0{fill:#FFFFFF;}
</style>
<path class="st0" d="M43,18c-1.7,0-3.2,0.6-4.5,1.6L14.3,7.4c0-0.1,0-0.1,0-0.2c0-3.9-3.2-7.1-7.1-7.1C3.2,0,0,3.2,0,7.1
	c0,3.9,3.2,7.1,7.1,7.1c1.7,0,3.2-0.6,4.5-1.6l24.3,12.2c0,0.1,0,0.1,0,0.2c0,0.1,0,0.1,0,0.2L11.6,37.5c-1.2-1-2.8-1.6-4.5-1.6
	C3.2,35.9,0,39.1,0,43c0,3.9,3.2,7.1,7.1,7.1c3.9,0,7.1-3.2,7.1-7.1c0-0.1,0-0.1,0-0.2l24.3-12.1c1.2,1,2.8,1.6,4.5,1.6
	c3.9,0,7.1-3.2,7.1-7.1C50.2,21.2,47,18,43,18z"/>
</svg>
