<?xml version="1.0" encoding="utf-8"?>
<!-- Generator: Adobe Illustrator 20.0.0, SVG Export Plug-In . SVG Version: 6.00 Build 0)  -->
<svg version="1.1" id="Layer_1" xmlns="http://www.w3.org/2000/svg" xmlns:xlink="http://www.w3.org/1999/xlink" x="0px" y="0px"
	 viewBox="0 0 50.2 50.2" style="enable-background:new 0 0 50.2 50.2;" xml:space="preserve">
<style type="text/css">
	.st0{fill:#FFFFFF;}
</style>
<g>
	<path class="st0" d="M34.1,17.7c0,0,0-0.1,0-0.2V7.2c0-0.1,0-0.2,0-0.2h-5c0,0,0,0.1,0,0.2v10.4c0,0.1,0,0.2,0,0.2L34.1,17.7
		L34.1,17.7z"/>
	<path class="st0" d="M41.1,0H5.2C2.3,0,0,2.3,0,5.2V45c0,2.9,2.3,5.2,5.2,5.2H45c2.9,0,5.2-2.3,5.2-5.2V9.1
		C46.6,5.5,44.6,3.5,41.1,0z M11.5,7.2c0-1.2,1-2.2,2.2-2.2h22.8c1.2,0,2.2,1,2.2,2.2v10.4c0,1.2-1,2.2-2.2,2.2H13.7
		c-1.2,0-2.2-1-2.2-2.2V7.2z M45.2,42.9c0,1.3-1,2.3-2.3,2.3H7.3c-1.3,0-2.3-1-2.3-2.3V26c0-1.2,0.9-2.1,2.1-2.1H43
		c1.2,0,2.1,0.9,2.1,2.1v16.9H45.2z"/>
</g>
</svg>
