<?xml version="1.0" encoding="utf-8"?>
<!-- Generator: Adobe Illustrator 20.0.0, SVG Export Plug-In . SVG Version: 6.00 Build 0)  -->
<svg version="1.1" id="Layer_1" xmlns="http://www.w3.org/2000/svg" xmlns:xlink="http://www.w3.org/1999/xlink" x="0px" y="0px"
	 viewBox="0 0 51.5 49.9" style="enable-background:new 0 0 51.5 49.9;" xml:space="preserve">
<style type="text/css">
	.st0{fill:#FFFFFF;}
</style>
<g>
	<path class="st0" d="M7.2,0H2.5C1.9,0,1.3,0.5,1.3,1.2v4.7c0,0.7,0.5,1.2,1.2,1.2h4.7c0.7,0,1.2-0.5,1.2-1.2V1.2
		C8.4,0.5,7.9,0,7.2,0z"/>
	<path class="st0" d="M15.6,1.2v4.7c0,0.7,0.5,1.2,1.2,1.2h33.5c0.7,0,1.2-0.5,1.2-1.2V1.2C51.5,0.5,51,0,50.3,0H16.8
		C16.1,0,15.6,0.5,15.6,1.2z"/>
</g>
<g>
	<path class="st0" d="M7.2,14.3H2.5c-0.7,0-1.2,0.5-1.2,1.2v4.7c0,0.7,0.5,1.2,1.2,1.2h4.7c0.7,0,1.2-0.5,1.2-1.2v-4.7
		C8.4,14.8,7.9,14.3,7.2,14.3z"/>
	<path class="st0" d="M15.6,15.5v4.7c0,0.7,0.5,1.2,1.2,1.2h33.5c0.7,0,1.2-0.5,1.2-1.2v-4.7c0-0.7-0.5-1.2-1.2-1.2H16.8
		C16.1,14.3,15.6,14.8,15.6,15.5z"/>
</g>
<g>
	<path class="st0" d="M15.6,29.7v4.7c0,0.7,0.5,1.2,1.2,1.2h33.5c0.7,0,1.2-0.5,1.2-1.2v-4.7c0-0.7-0.5-1.2-1.2-1.2H16.8
		C16.1,28.5,15.6,29,15.6,29.7z"/>
</g>
<g>
	<path class="st0" d="M15.6,44v4.7c0,0.7,0.5,1.2,1.2,1.2h33.5c0.7,0,1.2-0.5,1.2-1.2V44c0-0.7-0.5-1.2-1.2-1.2H16.8
		C16.1,42.8,15.6,43.3,15.6,44z"/>
	<path class="st0" d="M7.2,42.8H2.5c-0.7,0-1.2,0.5-1.2,1.2v4.7c0,0.7,0.5,1.2,1.2,1.2h4.7c0.7,0,1.2-0.5,1.2-1.2V44
		C8.4,43.3,7.9,42.8,7.2,42.8z"/>
</g>
<path class="st0" d="M4.3,37.5l-4.1-4.1c-0.3-0.3-0.3-0.8,0-1.1l1.7-1.7c0.3-0.3,0.8-0.3,1.1,0l1.5,1.5c0.2,0.2,0.5,0.2,0.7,0
	l3.9-3.9c0.3-0.3,0.8-0.3,1.1,0l1.7,1.7c0.3,0.3,0.3,0.8,0,1.1l-6.5,6.5C5.1,37.8,4.6,37.8,4.3,37.5z"/>
</svg>
