<?xml version="1.0" encoding="utf-8"?>
<!-- Generator: Adobe Illustrator 20.0.0, SVG Export Plug-In . SVG Version: 6.00 Build 0)  -->
<svg version="1.1" id="Layer_1" xmlns="http://www.w3.org/2000/svg" xmlns:xlink="http://www.w3.org/1999/xlink" x="0px" y="0px"
	 viewBox="0 0 50.2 50.2" style="enable-background:new 0 0 50.2 50.2;" xml:space="preserve">
<style type="text/css">
	.st0{fill:#FFFFFF;}
</style>
<g>
	<path class="st0" d="M1.2,12.9l21.9,9.6c1.4,0.6,2.9,0.6,4.3,0l21.9-9.6c1.1-0.5,1.1-2,0-2.5L27.4,0.8c-1.4-0.6-2.9-0.6-4.3,0
		L1.2,10.4C0.1,10.9,0.1,12.4,1.2,12.9z"/>
	<path class="st0" d="M49.3,19.5l-3.8-1.7l-16.9,7.4c-1.1,0.5-2.2,0.7-3.3,0.7S23,25.7,22,25.2L5,17.9l-3.8,1.7
		c-1.1,0.5-1.1,2,0,2.5l21.9,9.6l0,0c0.7,0.3,1.4,0.4,2.1,0.4s1.4-0.1,2.1-0.4l0,0l22-9.7C50.4,21.6,50.4,20,49.3,19.5z"/>
	<path class="st0" d="M49.3,28.6L45.5,27l-10.4,4.6l0,0l-6.5,2.8c-1.1,0.5-2.2,0.7-3.3,0.7S23,34.9,22,34.4l-6.5-2.8l0,0L5,27
		l-3.8,1.7c-1.1,0.5-1.1,2,0,2.5l21.9,9.6c1.4,0.6,2.9,0.6,4.3,0l21.9-9.6C50.4,30.7,50.4,29.1,49.3,28.6z"/>
	<path class="st0" d="M49.3,37.7L45.5,36l-16.9,7.4c-1.1,0.5-2.2,0.7-3.3,0.7S23,43.9,22,43.4L5,36.1l-3.8,1.7c-1.1,0.5-1.1,2,0,2.5
		l21.9,9.6c1.4,0.6,2.9,0.6,4.3,0l21.9-9.6C50.4,39.8,50.4,38.2,49.3,37.7z"/>
</g>
</svg>
