<?xml version="1.0" encoding="utf-8"?>
<!-- Generator: Adobe Illustrator 20.0.0, SVG Export Plug-In . SVG Version: 6.00 Build 0)  -->
<svg version="1.1" id="Layer_1" xmlns="http://www.w3.org/2000/svg" xmlns:xlink="http://www.w3.org/1999/xlink" x="0px" y="0px"
	 viewBox="0 0 67.8 67.9" style="enable-background:new 0 0 67.8 67.9;" xml:space="preserve">
<style type="text/css">
	.st0{fill:#FFFFFF;}
</style>
<path class="st0" d="M40.3,0c8.4,0,14.6,3.7,18.8,10.8c4.1,7,6.4,14.7,7.9,22.5c0.8,4.1,1.1,8.3,0.3,12.4
	c-1.1,5.8-4.4,10.1-9.4,13.1c-9.4,5.6-19.6,8.7-30.6,9.1c-8,0.3-14.1-3.2-18.3-10c-3.8-6.2-6-13.1-7.6-20.1
	c-1.1-4.7-1.8-9.4-1.1-14.2C1.2,16.9,5,12.2,10.6,8.8c6.5-3.9,13.6-6,20.9-7.6C34.4,0.6,37.4,0.4,40.3,0z M25.7,24.6
	c-0.5-1.5-0.9-2.9-1.4-4.2c-0.8-2.2-2.6-3.2-4.5-2.5c-2,0.7-2.8,2.5-2.1,4.7c0.4,1.4,0.9,2.7,1.4,4.2c-1.4,0.5-2.6,0.9-3.8,1.3
	c-2.3,0.8-3.4,2.6-2.8,4.5c0.6,2,2.6,2.8,5,2.1c1.3-0.4,2.5-0.8,3.9-1.3c0.5,1.6,1,3,1.5,4.4c0.5,1.4,0.9,2.9,1.4,4.4
	c-1.5,0.5-2.9,1-4.3,1.5c-2,0.8-2.9,2.7-2.2,4.5c0.7,1.8,2.5,2.6,4.5,2c1.4-0.4,2.8-0.9,4.2-1.4c0.5,1.5,1,2.9,1.5,4.3
	c0.7,2.1,2.5,3.1,4.4,2.5c1.9-0.6,2.8-2.5,2.1-4.7c-0.4-1.4-0.9-2.8-1.4-4.3c3.1-1,6-2,9.1-3c0.5,1.5,1,2.8,1.4,4.1
	c0.8,2.2,2.5,3.2,4.4,2.7c2-0.6,2.8-2.5,2.1-4.8c-0.4-1.4-0.9-2.7-1.4-4.2c1.4-0.5,2.7-0.9,4-1.3c2.2-0.7,3.2-2.6,2.6-4.5
	c-0.6-1.9-2.6-2.8-4.7-2.1c-1.3,0.4-2.7,0.9-4.1,1.4c-1-3-1.9-5.9-2.9-8.8c1.5-0.5,2.9-1,4.2-1.5c2.1-0.8,3-2.5,2.4-4.4
	c-0.6-1.8-2.6-2.7-4.6-2.1c-1.4,0.4-2.8,0.9-4.2,1.4c-0.5-1.5-1-2.9-1.5-4.3c-0.7-2.1-2.5-3-4.4-2.4c-1.9,0.6-2.8,2.5-2.1,4.6
	c0.4,1.4,0.9,2.9,1.4,4.4C31.7,22.6,28.8,23.6,25.7,24.6z"/>
<path class="st0" d="M27.8,31.2c3.1-1,6-2,9.1-3.1c1,2.9,1.9,5.7,3,8.8c-3,1-6,2.1-9.1,3.1C29.8,37.1,28.9,34.2,27.8,31.2z"/>
</svg>
