<?xml version="1.0" encoding="utf-8"?>
<!-- Generator: Adobe Illustrator 20.0.0, SVG Export Plug-In . SVG Version: 6.00 Build 0)  -->
<svg version="1.1" id="Layer_1" xmlns="http://www.w3.org/2000/svg" xmlns:xlink="http://www.w3.org/1999/xlink" x="0px" y="0px"
	 viewBox="0 0 68.7 68.9" style="enable-background:new 0 0 68.7 68.9;" xml:space="preserve">
<style type="text/css">
	.st0{fill:#FFFFFF;}
</style>
<path class="st0" d="M34.4,68.9c-10.5,0-20.9,0-31.4,0c-2.3,0-2.9-0.6-2.9-3C0,45,0,24,0,3c0-2.4,0.6-3,2.9-3c20.9,0,41.9,0,62.8,0
	c2.3,0,2.9,0.6,2.9,3c0,21,0,42,0,62.9c0,2.4-0.6,3-3.1,3C55.2,68.9,44.8,68.9,34.4,68.9z M6.3,31c0,7.3,0,14.6,0,21.9
	c0,1.7,0.7,2.4,2.4,2.4c6.4,0,12.8,0,19.2,0c1.8,0,2.5-0.6,2.5-2.5c0-14.5,0-29.1,0-43.6c0-1.8-0.6-2.4-2.5-2.4
	c-6.4,0-12.7,0-19.1,0c-1.9,0-2.5,0.6-2.5,2.5C6.3,16.5,6.3,23.8,6.3,31z M38.1,20.9c0,4,0,7.9,0,11.9c0,1.7,0.7,2.4,2.3,2.4
	c6.4,0,12.8,0,19.2,0c1.7,0,2.3-0.7,2.3-2.3c0-7.9,0-15.8,0-23.7c0-1.6-0.7-2.3-2.3-2.3c-6.4,0-12.9,0-19.3,0
	c-1.6,0-2.3,0.7-2.3,2.3C38.1,13,38.1,17,38.1,20.9z"/>
</svg>
